<svg xmlns="http://www.w3.org/2000/svg" version="1.1" xmlns:xlink="http://www.w3.org/1999/xlink" xmlns:svgjs="http://svgjs.com/svgjs" width="1000" height="1000"><rect width="1000" height="1000" rx="350" ry="350" fill="#e06666"></rect><g transform="matrix(1.8229166666666667,0,0,1.8229166666666667,150,145.31542273501202)"><svg xmlns="http://www.w3.org/2000/svg" version="1.1" xmlns:xlink="http://www.w3.org/1999/xlink" xmlns:svgjs="http://svgjs.com/svgjs" width="384" height="384"><svg version="1.1" viewBox="0.0 0.0 384.0 384.0" fill="none" stroke="none" stroke-linecap="square" stroke-miterlimit="10" xmlns:xlink="http://www.w3.org/1999/xlink" xmlns="http://www.w3.org/2000/svg"><clipPath id="p.0"><path d="m0 0l384.0 0l0 384.0l-384.0 0l0 -384.0z" clip-rule="nonzero"></path></clipPath><g clip-path="url(#p.0)"><path fill="#000000" fill-opacity="0.0" d="m0 0l384.0 0l0 384.0l-384.0 0z" fill-rule="evenodd"></path><path fill="#e06666" d="m0 -0.00839895l384.0 0l0 384.0l-384.0 0z" fill-rule="evenodd"></path><path fill="#000000" fill-opacity="0.0" d="m306.5009 95.89764l-153.10234 0l0 299.49606l153.10234 0z" fill-rule="evenodd"></path><path fill="#660000" d="m253.6173 332.6414q-20.859375 0 -36.390625 -6.328125q-15.53125 -6.328125 -25.78125 -17.921875q-10.25 -11.609375 -15.296875 -27.890625q-5.03125 -16.296875 -5.03125 -36.109375q0 -19.453125 5.328125 -35.625q5.328125 -16.171875 15.9375 -27.765625q10.609375 -11.609375 26.3125 -18.046875q15.703125 -6.453125 36.4375 -6.453125q13.35936 0 23.26561 2.0625q9.90625 2.046875 16.515625 5.6875q6.625 3.625 9.90625 8.546875q3.28125 4.921875 3.28125 10.65625q0 3.875 -1.765625 6.984375q-1.75 3.09375 -4.734375 5.265625q-2.984375 2.171875 -7.03125 3.34375q-4.046875 1.171875 -8.734375 1.171875q0 -5.625 -1.640625 -11.125q-1.640625 -5.515625 -5.390625 -9.90625q-3.75 -4.40625 -9.84375 -7.15625q-6.09375 -2.75 -14.874985 -2.75q-15.234375 0 -25.96875 4.984375q-10.71875 4.96875 -17.515625 14.53125q-6.796875 9.546875 -9.84375 23.546875q-3.046875 14.0 -3.046875 32.046875q0 17.9375 3.15625 31.890625q3.171875 13.9375 10.3125 23.4375q7.15625 9.484375 18.515625 14.40625q11.375 4.921875 27.781235 4.921875q6.921875 0 13.421875 -0.703125q6.5 -0.703125 11.546875 -2.234375l0 -38.671875q0 -5.265625 -1.59375 -8.484375q-1.578125 -3.234375 -4.28125 -4.921875q-2.6875 -1.703125 -6.265625 -2.28125q-3.5625 -0.59375 -7.546875 -0.59375l-0.9375 0l0 -10.078125l62.34375 0l0 10.078125l-0.9375 0q-3.40625 0 -6.453125 0.59375q-3.046875 0.578125 -5.28125 2.390625q-2.21875 1.8125 -3.515625 5.28125q-1.28125 3.453125 -1.28125 9.078125l0 43.125q-12.0625 5.625 -24.84375 8.328125q-12.765625 2.6875 -28.23436 2.6875z" fill-rule="nonzero"></path><path fill="#000000" fill-opacity="0.0" d="m191.99895 8.92441l-133.44882 0l0 299.49606l133.44882 0z" fill-rule="evenodd"></path><path fill="#cc0000" d="m199.08138 243.3244l-89.99999 -138.28125l0 110.96875q0 5.625 1.578125 9.03125q1.578125 3.390625 4.21875 5.21875q2.640625 1.8125 6.265625 2.40625q3.640625 0.578125 7.6249924 0.578125l3.15625 0l0 10.078125l-60.234367 0l0 -10.078125l3.046875 0q4.109375 0 7.671875 -0.578125q3.578125 -0.59375 6.265625 -2.40625q2.703125 -1.828125 4.21875 -5.21875q1.53125 -3.40625 1.53125 -9.03125l0 -117.65625q0 -5.265625 -1.578125 -8.484375q-1.578125 -3.234375 -4.28125 -4.984375q-2.6875 -1.765625 -6.265625 -2.28125q-3.578125 -0.53125 -7.5625 -0.53125l-3.046875 0l0 -10.078125l43.953125 0l85.89062 132.65625l0 -106.296875q0 -5.265625 -1.578125 -8.484375q-1.578125 -3.234375 -4.28125 -4.984375q-2.6875 -1.765625 -6.265625 -2.28125q-3.578125 -0.53125 -7.5625 -0.53125l-3.15625 0l0 -10.078125l60.234375 0l0 10.078125l-3.046875 0q-4.109375 0 -7.6875 0.59375q-3.5625 0.578125 -6.265625 2.390625q-2.6875 1.8125 -4.21875 5.21875q-1.515625 3.390625 -1.515625 9.015625l0 144.03125l-17.109375 0z" fill-rule="nonzero"></path></g></svg></svg></g></svg>